# Blender 4.5.2 LTS
# www.blender.org
mtllib autorretrato-con-pelo-corto.mtl
o Cubo.002
v -0.100000 -1.300000 0.862500
v -0.100000 -1.120690 0.862500
v -0.100000 -1.300000 -0.862500
v -0.100000 -1.120690 -0.862500
v 0.100000 -1.300000 0.862500
v 0.100000 -1.120690 0.862500
v 0.100000 -1.300000 -0.862500
v 0.100000 -1.120690 -0.862500
v -0.100000 1.120690 0.862500
v -0.100000 1.300000 0.862500
v -0.100000 1.120690 -0.862500
v -0.100000 1.300000 -0.862500
v 0.100000 1.120690 0.862500
v 0.100000 1.300000 0.862500
v 0.100000 1.120690 -0.862500
v 0.100000 1.300000 -0.862500
v -0.100000 -1.300000 -0.900001
v -0.100000 -1.300000 -0.750000
v -0.100000 1.300000 -0.900001
v -0.100000 1.300000 -0.750000
v 0.100000 -1.300000 -0.900001
v 0.100000 -1.300000 -0.750000
v 0.100000 1.300000 -0.900001
v 0.100000 1.300000 -0.750000
v -0.100000 -1.300000 0.750000
v -0.100000 -1.300000 0.900001
v -0.100000 1.300000 0.750000
v -0.100000 1.300000 0.900001
v 0.100000 -1.300000 0.750000
v 0.100000 -1.300000 0.900001
v 0.100000 1.300000 0.750000
v 0.100000 1.300000 0.900001
vn -1.0000 -0.0000 -0.0000
vn -0.0000 -0.0000 -1.0000
vn 1.0000 -0.0000 -0.0000
vn -0.0000 -0.0000 1.0000
vn -0.0000 -1.0000 -0.0000
vn -0.0000 1.0000 -0.0000
vt 0.375000 0.000000
vt 0.625000 0.000000
vt 0.625000 0.250000
vt 0.375000 0.250000
vt 0.625000 0.500000
vt 0.375000 0.500000
vt 0.625000 0.750000
vt 0.375000 0.750000
vt 0.625000 1.000000
vt 0.375000 1.000000
vt 0.125000 0.500000
vt 0.125000 0.750000
vt 0.875000 0.500000
vt 0.875000 0.750000
s 0
usemtl material-marco
f 1/1/1 2/2/1 4/3/1 3/4/1
f 3/4/2 4/3/2 8/5/2 7/6/2
f 7/6/3 8/5/3 6/7/3 5/8/3
f 5/8/4 6/7/4 2/9/4 1/10/4
f 3/11/5 7/6/5 5/8/5 1/12/5
f 8/5/6 4/13/6 2/14/6 6/7/6
f 9/1/1 10/2/1 12/3/1 11/4/1
f 11/4/2 12/3/2 16/5/2 15/6/2
f 15/6/3 16/5/3 14/7/3 13/8/3
f 13/8/4 14/7/4 10/9/4 9/10/4
f 11/11/5 15/6/5 13/8/5 9/12/5
f 16/5/6 12/13/6 10/14/6 14/7/6
f 17/1/1 18/2/1 20/3/1 19/4/1
f 19/4/6 20/3/6 24/5/6 23/6/6
f 23/6/3 24/5/3 22/7/3 21/8/3
f 21/8/5 22/7/5 18/9/5 17/10/5
f 19/11/2 23/6/2 21/8/2 17/12/2
f 24/5/4 20/13/4 18/14/4 22/7/4
f 25/1/1 26/2/1 28/3/1 27/4/1
f 27/4/6 28/3/6 32/5/6 31/6/6
f 31/6/3 32/5/3 30/7/3 29/8/3
f 29/8/5 30/7/5 26/9/5 25/10/5
f 27/11/2 31/6/2 29/8/2 25/12/2
f 32/5/4 28/13/4 26/14/4 30/7/4
o Cubo
v -0.005000 -1.100000 0.750000
v -0.005000 1.100000 0.750000
v -0.005000 -1.100000 -0.750000
v -0.005000 1.100000 -0.750000
v 0.005000 -1.100000 0.750000
v 0.005000 1.100000 0.750000
v 0.005000 -1.100000 -0.750000
v 0.005000 1.100000 -0.750000
vn -1.0000 -0.0000 -0.0000
vn -0.0000 -0.0000 -1.0000
vn 1.0000 -0.0000 -0.0000
vn -0.0000 -0.0000 1.0000
vn -0.0000 -1.0000 -0.0000
vn -0.0000 1.0000 -0.0000
vt 0.001322 -1.992380
vt 0.998678 -1.992380
vt 0.998678 -0.995025
vt 0.001322 -0.995025
vt 0.998678 0.002331
vt 0.001322 0.002331
vt 0.998678 0.999687
vt 0.001322 0.999687
vt 0.998678 1.997043
vt 0.001322 1.997043
vt -0.996034 0.002331
vt -0.996034 0.999687
vt 1.996034 0.002331
vt 1.996034 0.999687
s 0
usemtl Material.003
f 33/15/7 34/16/7 36/17/7 35/18/7
f 35/18/8 36/17/8 40/19/8 39/20/8
f 39/20/9 40/19/9 38/21/9 37/22/9
f 37/22/10 38/21/10 34/23/10 33/24/10
f 35/25/11 39/20/11 37/22/11 33/26/11
f 40/19/12 36/27/12 34/28/12 38/21/12
