# Blender 4.5.2 LTS
# www.blender.org
mtllib caballete_limpio.mtl
o PataDerecha
v -0.100000 -1.000000 0.600000
v -0.100000 1.000000 0.600000
v -0.100000 -1.000000 0.400000
v -0.100000 1.000000 0.400000
v 0.100000 -1.000000 0.600000
v 0.100000 1.000000 0.600000
v 0.100000 -1.000000 0.400000
v 0.100000 1.000000 0.400000
vn -1.0000 -0.0000 -0.0000
vn -0.0000 -0.0000 -1.0000
vn 1.0000 -0.0000 -0.0000
vn -0.0000 -0.0000 1.0000
vn -0.0000 -1.0000 -0.0000
vn -0.0000 1.0000 -0.0000
vt 0.375000 0.000000
vt 0.625000 0.000000
vt 0.625000 0.250000
vt 0.375000 0.250000
vt 0.625000 0.500000
vt 0.375000 0.500000
vt 0.625000 0.750000
vt 0.375000 0.750000
vt 0.625000 1.000000
vt 0.375000 1.000000
vt 0.125000 0.500000
vt 0.125000 0.750000
vt 0.875000 0.500000
vt 0.875000 0.750000
s 0
usemtl Material.001
f 1/1/1 2/2/1 4/3/1 3/4/1
f 3/4/2 4/3/2 8/5/2 7/6/2
f 7/6/3 8/5/3 6/7/3 5/8/3
f 5/8/4 6/7/4 2/9/4 1/10/4
f 3/11/5 7/6/5 5/8/5 1/12/5
f 8/5/6 4/13/6 2/14/6 6/7/6
o Pintura
v 0.005331 1.017482 1.000000
v 0.352628 2.987097 1.000000
v 0.005331 1.017482 -1.000000
v 0.352628 2.987097 -1.000000
v 0.103812 1.000117 1.000000
v 0.451108 2.969732 1.000000
v 0.103812 1.000117 -1.000000
v 0.451108 2.969732 -1.000000
vn -0.9848 0.1736 -0.0000
vn -0.0000 -0.0000 -1.0000
vn 0.9848 -0.1736 -0.0000
vn -0.0000 -0.0000 1.0000
vn -0.1736 -0.9848 -0.0000
vn 0.1736 0.9848 -0.0000
vt 0.221193 0.194520
vt 0.220127 0.778081
vt 0.814997 0.779276
vt 0.809278 0.195715
vt 0.707611 0.650153
vt 0.784296 0.647604
vt 0.785571 0.705174
vt 0.710160 0.705174
vt 0.600486 0.642944
vt 0.666988 0.642944
vt 0.666287 0.734167
vt 0.598924 0.733880
vt 0.375000 0.750000
vt 0.625000 0.750000
vt 0.626274 0.780808
vt 0.376274 0.778259
vt 0.125000 0.500000
vt 0.375000 0.500000
vt 0.125000 0.750000
vt 0.625000 0.500000
vt 0.875000 0.500000
vt 0.875000 0.750000
s 0
usemtl Material.002
f 9/15/7 10/16/7 12/17/7 11/18/7
f 11/19/8 12/20/8 16/21/8 15/22/8
f 15/23/9 16/24/9 14/25/9 13/26/9
f 13/27/10 14/28/10 10/29/10 9/30/10
f 11/31/11 15/32/11 13/27/11 9/33/11
f 16/34/12 12/35/12 10/36/12 14/28/12
o SoporteTrasero
v 0.024459 0.986355 0.100000
v 0.458579 3.448374 0.100000
v 0.024459 0.986355 -0.100000
v 0.458579 3.448374 -0.100000
v 0.221421 0.951625 0.100000
v 0.655541 3.413644 0.100000
v 0.221421 0.951625 -0.100000
v 0.655541 3.413644 -0.100000
vn -0.9848 0.1736 -0.0000
vn -0.0000 -0.0000 -1.0000
vn 0.9848 -0.1736 -0.0000
vn -0.0000 -0.0000 1.0000
vn -0.1736 -0.9848 -0.0000
vn 0.1736 0.9848 -0.0000
vt 0.375000 0.000000
vt 0.625000 0.000000
vt 0.625000 0.250000
vt 0.375000 0.250000
vt 0.625000 0.500000
vt 0.375000 0.500000
vt 0.625000 0.750000
vt 0.375000 0.750000
vt 0.625000 1.000000
vt 0.375000 1.000000
vt 0.125000 0.500000
vt 0.125000 0.750000
vt 0.875000 0.500000
vt 0.875000 0.750000
s 0
usemtl Material.001
f 17/37/13 18/38/13 20/39/13 19/40/13
f 19/40/14 20/39/14 24/41/14 23/42/14
f 23/42/15 24/41/15 22/43/15 21/44/15
f 21/44/16 22/43/16 18/45/16 17/46/16
f 19/47/17 23/42/17 21/44/17 17/48/17
f 24/41/18 20/49/18 18/50/18 22/43/18
o PataTrasera
v 1.279191 -1.138237 0.100000
v 0.155372 1.643315 0.100000
v 1.279191 -1.138237 -0.100000
v 0.155372 1.643315 -0.100000
v 1.464628 -1.063315 0.100000
v 0.340809 1.718236 0.100000
v 1.464628 -1.063315 -0.100000
v 0.340809 1.718236 -0.100000
vn -0.9272 -0.3746 -0.0000
vn -0.0000 -0.0000 -1.0000
vn 0.9272 0.3746 -0.0000
vn -0.0000 -0.0000 1.0000
vn 0.3746 -0.9272 -0.0000
vn -0.3746 0.9272 -0.0000
vt 0.375000 0.000000
vt 0.625000 0.000000
vt 0.625000 0.250000
vt 0.375000 0.250000
vt 0.625000 0.500000
vt 0.375000 0.500000
vt 0.625000 0.750000
vt 0.375000 0.750000
vt 0.625000 1.000000
vt 0.375000 1.000000
vt 0.125000 0.500000
vt 0.125000 0.750000
vt 0.875000 0.500000
vt 0.875000 0.750000
s 0
usemtl Material.001
f 25/51/19 26/52/19 28/53/19 27/54/19
f 27/54/20 28/53/20 32/55/20 31/56/20
f 31/56/21 32/55/21 30/57/21 29/58/21
f 29/58/22 30/57/22 26/59/22 25/60/22
f 27/61/23 31/56/23 29/58/23 25/62/23
f 32/55/24 28/63/24 26/64/24 30/57/24
o Adorno
v 0.412837 3.168124 -0.250000
v 0.412837 3.168124 0.250000
v 0.430202 3.266605 -0.250000
v 0.430202 3.266605 0.250000
v 0.609798 3.133395 -0.250000
v 0.609798 3.133395 0.250000
v 0.627163 3.231876 -0.250000
v 0.627163 3.231876 0.250000
vn -0.9848 0.1736 -0.0000
vn 0.1736 0.9848 -0.0000
vn 0.9848 -0.1736 -0.0000
vn -0.1736 -0.9848 -0.0000
vn -0.0000 -0.0000 -1.0000
vn -0.0000 -0.0000 1.0000
vt 0.375000 0.000000
vt 0.625000 0.000000
vt 0.625000 0.250000
vt 0.375000 0.250000
vt 0.625000 0.500000
vt 0.375000 0.500000
vt 0.625000 0.750000
vt 0.375000 0.750000
vt 0.625000 1.000000
vt 0.375000 1.000000
vt 0.125000 0.500000
vt 0.125000 0.750000
vt 0.875000 0.500000
vt 0.875000 0.750000
s 0
usemtl Material.001
f 33/65/25 34/66/25 36/67/25 35/68/25
f 35/68/26 36/67/26 40/69/26 39/70/26
f 39/70/27 40/69/27 38/71/27 37/72/27
f 37/72/28 38/71/28 34/73/28 33/74/28
f 35/75/29 39/70/29 37/72/29 33/76/29
f 40/69/30 36/77/30 34/78/30 38/71/30
o PataIzquierda
v -0.100000 -1.000000 -0.400000
v -0.100000 1.000000 -0.400000
v -0.100000 -1.000000 -0.600000
v -0.100000 1.000000 -0.600000
v 0.100000 -1.000000 -0.400000
v 0.100000 1.000000 -0.400000
v 0.100000 -1.000000 -0.600000
v 0.100000 1.000000 -0.600000
vn -1.0000 -0.0000 -0.0000
vn -0.0000 -0.0000 -1.0000
vn 1.0000 -0.0000 -0.0000
vn -0.0000 -0.0000 1.0000
vn -0.0000 -1.0000 -0.0000
vn -0.0000 1.0000 -0.0000
vt 0.375000 0.000000
vt 0.625000 0.000000
vt 0.625000 0.250000
vt 0.375000 0.250000
vt 0.625000 0.500000
vt 0.375000 0.500000
vt 0.625000 0.750000
vt 0.375000 0.750000
vt 0.625000 1.000000
vt 0.375000 1.000000
vt 0.125000 0.500000
vt 0.125000 0.750000
vt 0.875000 0.500000
vt 0.875000 0.750000
s 0
usemtl Material.001
f 41/79/31 42/80/31 44/81/31 43/82/31
f 43/82/32 44/81/32 48/83/32 47/84/32
f 47/84/33 48/83/33 46/85/33 45/86/33
f 45/86/34 46/85/34 42/87/34 41/88/34
f 43/89/35 47/84/35 45/86/35 41/90/35
f 48/83/36 44/91/36 42/92/36 46/85/36
o Base
v -0.250000 0.710000 -1.000000
v -0.250000 0.710000 1.000000
v -0.250000 1.010000 -1.000000
v -0.250000 1.010000 1.000000
v 0.250000 0.710000 -1.000000
v 0.250000 0.710000 1.000000
v 0.250000 1.010000 -1.000000
v 0.250000 1.010000 1.000000
vn -1.0000 -0.0000 -0.0000
vn -0.0000 1.0000 -0.0000
vn 1.0000 -0.0000 -0.0000
vn -0.0000 -1.0000 -0.0000
vn -0.0000 -0.0000 -1.0000
vn -0.0000 -0.0000 1.0000
vt 0.375000 0.000000
vt 0.625000 0.000000
vt 0.625000 0.250000
vt 0.375000 0.250000
vt 0.625000 0.500000
vt 0.375000 0.500000
vt 0.625000 0.750000
vt 0.375000 0.750000
vt 0.625000 1.000000
vt 0.375000 1.000000
vt 0.125000 0.500000
vt 0.125000 0.750000
vt 0.875000 0.500000
vt 0.875000 0.750000
s 0
usemtl Material.001
f 49/93/37 50/94/37 52/95/37 51/96/37
f 51/96/38 52/95/38 56/97/38 55/98/38
f 55/98/39 56/97/39 54/99/39 53/100/39
f 53/100/40 54/99/40 50/101/40 49/102/40
f 51/103/41 55/98/41 53/100/41 49/104/41
f 56/97/42 52/105/42 50/106/42 54/99/42
