# Blender 4.5.2 LTS
# www.blender.org
mtllib pintura-cocos.mtl
o Cubo.002
v -0.100000 -0.500000 0.910416
v -0.100000 -0.431035 0.910416
v -0.100000 -0.500000 -0.910416
v -0.100000 -0.431035 -0.910416
v 0.100000 -0.500000 0.910416
v 0.100000 -0.431035 0.910416
v 0.100000 -0.500000 -0.910416
v 0.100000 -0.431035 -0.910416
v -0.100000 0.431035 0.910416
v -0.100000 0.500000 0.910416
v -0.100000 0.431035 -0.910416
v -0.100000 0.500000 -0.910416
v 0.100000 0.431035 0.910416
v 0.100000 0.500000 0.910416
v 0.100000 0.431035 -0.910416
v 0.100000 0.500000 -0.910416
v -0.100000 -0.500000 -0.950000
v -0.100000 -0.500000 -0.791667
v -0.100000 0.500000 -0.950000
v -0.100000 0.500000 -0.791667
v 0.100000 -0.500000 -0.950000
v 0.100000 -0.500000 -0.791667
v 0.100000 0.500000 -0.950000
v 0.100000 0.500000 -0.791667
v -0.100000 -0.500000 0.791667
v -0.100000 -0.500000 0.950000
v -0.100000 0.500000 0.791667
v -0.100000 0.500000 0.950000
v 0.100000 -0.500000 0.791667
v 0.100000 -0.500000 0.950000
v 0.100000 0.500000 0.791667
v 0.100000 0.500000 0.950000
vn -1.0000 -0.0000 -0.0000
vn -0.0000 -0.0000 -1.0000
vn 1.0000 -0.0000 -0.0000
vn -0.0000 -0.0000 1.0000
vn -0.0000 -1.0000 -0.0000
vn -0.0000 1.0000 -0.0000
vt 0.625000 0.000000
vt 0.375000 0.250000
vt 0.375000 0.000000
vt 0.625000 0.250000
vt 0.375000 0.500000
vt 0.625000 0.500000
vt 0.375000 0.750000
vt 0.625000 0.750000
vt 0.375000 1.000000
vt 0.125000 0.750000
vt 0.125000 0.500000
vt 0.875000 0.500000
vt 0.625000 1.000000
vt 0.875000 0.750000
s 0
usemtl material-marco
f 2/1/1 3/2/1 1/3/1
f 4/4/2 7/5/2 3/2/2
f 8/6/3 5/7/3 7/5/3
f 6/8/4 1/9/4 5/7/4
f 7/5/5 1/10/5 3/11/5
f 4/12/6 6/8/6 8/6/6
f 10/1/1 11/2/1 9/3/1
f 12/4/2 15/5/2 11/2/2
f 16/6/3 13/7/3 15/5/3
f 14/8/4 9/9/4 13/7/4
f 15/5/5 9/10/5 11/11/5
f 12/12/6 14/8/6 16/6/6
f 18/1/1 19/2/1 17/3/1
f 20/4/6 23/5/6 19/2/6
f 24/6/3 21/7/3 23/5/3
f 22/8/5 17/9/5 21/7/5
f 23/5/2 17/10/2 19/11/2
f 20/12/4 22/8/4 24/6/4
f 26/1/1 27/2/1 25/3/1
f 28/4/6 31/5/6 27/2/6
f 32/6/3 29/7/3 31/5/3
f 30/8/5 25/9/5 29/7/5
f 31/5/2 25/10/2 27/11/2
f 28/12/4 30/8/4 32/6/4
f 2/1/1 4/4/1 3/2/1
f 4/4/2 8/6/2 7/5/2
f 8/6/3 6/8/3 5/7/3
f 6/8/4 2/13/4 1/9/4
f 7/5/5 5/7/5 1/10/5
f 4/12/6 2/14/6 6/8/6
f 10/1/1 12/4/1 11/2/1
f 12/4/2 16/6/2 15/5/2
f 16/6/3 14/8/3 13/7/3
f 14/8/4 10/13/4 9/9/4
f 15/5/5 13/7/5 9/10/5
f 12/12/6 10/14/6 14/8/6
f 18/1/1 20/4/1 19/2/1
f 20/4/6 24/6/6 23/5/6
f 24/6/3 22/8/3 21/7/3
f 22/8/5 18/13/5 17/9/5
f 23/5/2 21/7/2 17/10/2
f 20/12/4 18/14/4 22/8/4
f 26/1/1 28/4/1 27/2/1
f 28/4/6 32/6/6 31/5/6
f 32/6/3 30/8/3 29/7/3
f 30/8/5 26/13/5 25/9/5
f 31/5/2 29/7/2 25/10/2
f 28/12/4 26/14/4 30/8/4
o Cubo
v -0.005000 -0.450000 0.800000
v -0.005000 0.450000 0.800000
v -0.005000 -0.450000 -0.800000
v -0.005000 0.450000 -0.800000
v 0.005000 -0.450000 0.800000
v 0.005000 0.450000 0.800000
v 0.005000 -0.450000 -0.800000
v 0.005000 0.450000 -0.800000
vn -1.0000 -0.0000 -0.0000
vn -0.0000 -0.0000 -1.0000
vn 1.0000 -0.0000 -0.0000
vn -0.0000 -0.0000 1.0000
vn -0.0000 -1.0000 -0.0000
vn -0.0000 1.0000 -0.0000
vt 0.998678 -1.992380
vt 0.001322 -0.995025
vt 0.001322 -1.992380
vt 0.998678 -0.995025
vt 0.001322 0.002331
vt 0.998678 0.002331
vt 0.001322 0.999687
vt 0.998678 0.999687
vt 0.001322 1.997043
vt -0.996034 0.999687
vt -0.996034 0.002331
vt 1.996034 0.002331
vt 0.998678 1.997043
vt 1.996034 0.999687
s 0
usemtl lienzo-pintura
f 34/15/7 35/16/7 33/17/7
f 36/18/8 39/19/8 35/16/8
f 40/20/9 37/21/9 39/19/9
f 38/22/10 33/23/10 37/21/10
f 39/19/11 33/24/11 35/25/11
f 36/26/12 38/22/12 40/20/12
f 34/15/7 36/18/7 35/16/7
f 36/18/8 40/20/8 39/19/8
f 40/20/9 38/22/9 37/21/9
f 38/22/10 34/27/10 33/23/10
f 39/19/11 37/21/11 33/24/11
f 36/26/12 34/28/12 38/22/12
